<svg xmlns="http://www.w3.org/2000/svg" xmlns:xlink="http://www.w3.org/1999/xlink" width="439pt" height="1195pt" viewBox="0.00 0.00 439.00 1195.00">
<g id="graph0" class="graph" transform="scale(1 1) rotate(0) translate(4 1190.89)">
<title>PacketCapture</title>
<polygon fill="white" stroke="none" points="-4,4 -4,-1190.89 435.01,-1190.89 435.01,4 -4,4"/>
<!-- START -->
<g id="node1" class="node">
<title>START</title>
<ellipse fill="green" stroke="black" cx="290.87" cy="-1145.27" rx="41.62" ry="41.62"/>
<text xml:space="preserve" text-anchor="middle" x="290.87" y="-1141.07" font-family="Times,serif" font-size="14.00">START</text>
</g>
<!-- PARSE_ARGS -->
<g id="node2" class="node">
<title>PARSE_ARGS</title>
<path fill="none" stroke="black" d="M353.96,-1050.85C353.96,-1050.85 227.77,-1050.85 227.77,-1050.85 221.77,-1050.85 215.77,-1044.85 215.77,-1038.85 215.77,-1038.85 215.77,-1026.85 215.77,-1026.85 215.77,-1020.85 221.77,-1014.85 227.77,-1014.85 227.77,-1014.85 353.96,-1014.85 353.96,-1014.85 359.96,-1014.85 365.96,-1020.85 365.96,-1026.85 365.96,-1026.85 365.96,-1038.85 365.96,-1038.85 365.96,-1044.85 359.96,-1050.85 353.96,-1050.85"/>
<text xml:space="preserve" text-anchor="middle" x="290.87" y="-1028.65" font-family="Times,serif" font-size="14.00">PARSE ARGUMENTS</text>
</g>
<!-- START&#45;&gt;PARSE_ARGS -->
<g id="edge1" class="edge">
<title>START-&gt;PARSE_ARGS</title>
<path fill="none" stroke="black" d="M290.87,-1103.15C290.87,-1089.72 290.87,-1075.1 290.87,-1062.77"/>
<polygon fill="black" stroke="black" points="294.37,-1062.83 290.87,-1052.84 287.37,-1062.84 294.37,-1062.83"/>
<text xml:space="preserve" text-anchor="middle" x="302.92" y="-1073.05" font-family="Times,serif" font-size="14.00">start</text>
</g>
<!-- VALIDATE_ARGS -->
<g id="node3" class="node">
<title>VALIDATE_ARGS</title>
<path fill="none" stroke="black" d="M305.56,-962.05C305.56,-962.05 152.18,-962.05 152.18,-962.05 146.18,-962.05 140.18,-956.05 140.18,-950.05 140.18,-950.05 140.18,-938.05 140.18,-938.05 140.18,-932.05 146.18,-926.05 152.18,-926.05 152.18,-926.05 305.56,-926.05 305.56,-926.05 311.56,-926.05 317.56,-932.05 317.56,-938.05 317.56,-938.05 317.56,-950.05 317.56,-950.05 317.56,-956.05 311.56,-962.05 305.56,-962.05"/>
<text xml:space="preserve" text-anchor="middle" x="228.87" y="-939.85" font-family="Times,serif" font-size="14.00">VALIDATE ARGUMENTS</text>
</g>
<!-- PARSE_ARGS&#45;&gt;VALIDATE_ARGS -->
<g id="edge2" class="edge">
<title>PARSE_ARGS-&gt;VALIDATE_ARGS</title>
<path fill="none" stroke="black" d="M253.42,-1014.46C246.55,-1009.67 240.14,-1003.83 235.69,-996.85 231.29,-989.96 229.15,-981.52 228.21,-973.45"/>
<polygon fill="black" stroke="black" points="231.71,-973.45 227.67,-963.66 224.72,-973.84 231.71,-973.45"/>
<text xml:space="preserve" text-anchor="middle" x="287.78" y="-984.25" font-family="Times,serif" font-size="14.00">parse_arguments()</text>
</g>
<!-- ERROR -->
<g id="node14" class="node">
<title>ERROR</title>
<polygon fill="yellow" stroke="black" points="385.21,-873.25 322.53,-873.25 322.53,-837.25 385.21,-837.25 385.21,-873.25"/>
<text xml:space="preserve" text-anchor="middle" x="353.87" y="-851.05" font-family="Times,serif" font-size="14.00">ERROR</text>
</g>
<!-- PARSE_ARGS&#45;&gt;ERROR -->
<g id="edge3" class="edge">
<title>PARSE_ARGS-&gt;ERROR</title>
<path fill="none" stroke="black" d="M323.57,-1014.47C329.95,-1009.6 335.89,-1003.72 339.87,-996.85 359.85,-962.33 360.1,-914.94 357.62,-884.96"/>
<polygon fill="black" stroke="black" points="361.11,-884.74 356.63,-875.14 354.15,-885.44 361.11,-884.74"/>
<text xml:space="preserve" text-anchor="middle" x="391.01" y="-939.85" font-family="Times,serif" font-size="14.00">invalid args</text>
</g>
<!-- INIT_CAPTURE -->
<g id="node4" class="node">
<title>INIT_CAPTURE</title>
<path fill="none" stroke="black" d="M219.05,-873.25C219.05,-873.25 86.69,-873.25 86.69,-873.25 80.69,-873.25 74.69,-867.25 74.69,-861.25 74.69,-861.25 74.69,-849.25 74.69,-849.25 74.69,-843.25 80.69,-837.25 86.69,-837.25 86.69,-837.25 219.05,-837.25 219.05,-837.25 225.05,-837.25 231.05,-843.25 231.05,-849.25 231.05,-849.25 231.05,-861.25 231.05,-861.25 231.05,-867.25 225.05,-873.25 219.05,-873.25"/>
<text xml:space="preserve" text-anchor="middle" x="152.87" y="-851.05" font-family="Times,serif" font-size="14.00">INITIALIZE CAPTURE</text>
</g>
<!-- VALIDATE_ARGS&#45;&gt;INIT_CAPTURE -->
<g id="edge4" class="edge">
<title>VALIDATE_ARGS-&gt;INIT_CAPTURE</title>
<path fill="none" stroke="black" d="M195.39,-925.65C188.01,-920.7 180.72,-914.79 175.05,-908.05 169.25,-901.15 164.75,-892.51 161.37,-884.27"/>
<polygon fill="black" stroke="black" points="164.67,-883.11 157.95,-874.91 158.09,-885.51 164.67,-883.11"/>
<text xml:space="preserve" text-anchor="middle" x="202.46" y="-895.45" font-family="Times,serif" font-size="14.00">args valid</text>
</g>
<!-- VALIDATE_ARGS&#45;&gt;ERROR -->
<g id="edge5" class="edge">
<title>VALIDATE_ARGS-&gt;ERROR</title>
<path fill="none" stroke="black" d="M234.21,-926.04C238.53,-914.78 245.67,-900.45 256.28,-891.25 271.71,-877.87 292.63,-869.48 311.14,-864.28"/>
<polygon fill="black" stroke="black" points="312,-867.67 320.82,-861.81 310.27,-860.89 312,-867.67"/>
<text xml:space="preserve" text-anchor="middle" x="298.07" y="-895.45" font-family="Times,serif" font-size="14.00">validation fails</text>
</g>
<!-- CAPTURE_PACKET -->
<g id="node5" class="node">
<title>CAPTURE_PACKET</title>
<path fill="none" stroke="black" d="M125.73,-784.45C125.73,-784.45 12,-784.45 12,-784.45 6,-784.45 0,-778.45 0,-772.45 0,-772.45 0,-760.45 0,-760.45 0,-754.45 6,-748.45 12,-748.45 12,-748.45 125.73,-748.45 125.73,-748.45 131.73,-748.45 137.73,-754.45 137.73,-760.45 137.73,-760.45 137.73,-772.45 137.73,-772.45 137.73,-778.45 131.73,-784.45 125.73,-784.45"/>
<text xml:space="preserve" text-anchor="middle" x="68.87" y="-762.25" font-family="Times,serif" font-size="14.00">CAPTURE PACKET</text>
</g>
<!-- INIT_CAPTURE&#45;&gt;CAPTURE_PACKET -->
<g id="edge6" class="edge">
<title>INIT_CAPTURE-&gt;CAPTURE_PACKET</title>
<path fill="none" stroke="black" d="M136.27,-837.1C124.04,-824.46 107.21,-807.07 93.42,-792.82"/>
<polygon fill="black" stroke="black" points="96.24,-790.7 86.77,-785.95 91.21,-795.57 96.24,-790.7"/>
<text xml:space="preserve" text-anchor="middle" x="150.46" y="-806.65" font-family="Times,serif" font-size="14.00">start sniffer</text>
</g>
<!-- CONVERT_HEX -->
<g id="node6" class="node">
<title>CONVERT_HEX</title>
<path fill="none" stroke="black" d="M219.14,-695.65C219.14,-695.65 106.59,-695.65 106.59,-695.65 100.59,-695.65 94.59,-689.65 94.59,-683.65 94.59,-683.65 94.59,-671.65 94.59,-671.65 94.59,-665.65 100.59,-659.65 106.59,-659.65 106.59,-659.65 219.14,-659.65 219.14,-659.65 225.14,-659.65 231.14,-665.65 231.14,-671.65 231.14,-671.65 231.14,-683.65 231.14,-683.65 231.14,-689.65 225.14,-695.65 219.14,-695.65"/>
<text xml:space="preserve" text-anchor="middle" x="162.87" y="-673.45" font-family="Times,serif" font-size="14.00">CONVERT TO HEX</text>
</g>
<!-- CAPTURE_PACKET&#45;&gt;CONVERT_HEX -->
<g id="edge7" class="edge">
<title>CAPTURE_PACKET-&gt;CONVERT_HEX</title>
<path fill="none" stroke="black" d="M87.44,-748.3C101.25,-735.54 120.32,-717.94 135.82,-703.62"/>
<polygon fill="black" stroke="black" points="137.93,-706.44 142.9,-697.09 133.18,-701.3 137.93,-706.44"/>
<text xml:space="preserve" text-anchor="middle" x="168.01" y="-717.85" font-family="Times,serif" font-size="14.00">packet received</text>
</g>
<!-- CLEANUP -->
<g id="node12" class="node">
<title>CLEANUP</title>
<path fill="none" stroke="black" d="M144.15,-162.85C144.15,-162.85 87.59,-162.85 87.59,-162.85 81.59,-162.85 75.59,-156.85 75.59,-150.85 75.59,-150.85 75.59,-138.85 75.59,-138.85 75.59,-132.85 81.59,-126.85 87.59,-126.85 87.59,-126.85 144.15,-126.85 144.15,-126.85 150.15,-126.85 156.15,-132.85 156.15,-138.85 156.15,-138.85 156.15,-150.85 156.15,-150.85 156.15,-156.85 150.15,-162.85 144.15,-162.85"/>
<text xml:space="preserve" text-anchor="middle" x="115.87" y="-140.65" font-family="Times,serif" font-size="14.00">CLEANUP</text>
</g>
<!-- CAPTURE_PACKET&#45;&gt;CLEANUP -->
<g id="edge15" class="edge">
<title>CAPTURE_PACKET-&gt;CLEANUP</title>
<path fill="none" stroke="black" d="M47.54,-748.21C30.3,-732.21 8.87,-706.68 8.87,-678.65 8.87,-678.65 8.87,-678.65 8.87,-232.65 8.87,-201.01 37.43,-178.9 65.04,-164.91"/>
<polygon fill="black" stroke="black" points="66.21,-168.22 73.74,-160.77 63.21,-161.9 66.21,-168.22"/>
<text xml:space="preserve" text-anchor="middle" x="30.25" y="-451.45" font-family="Times,serif" font-size="14.00">timeout</text>
</g>
<!-- PARSE_ETHERNET -->
<g id="node7" class="node">
<title>PARSE_ETHERNET</title>
<path fill="none" stroke="black" d="M239.56,-606.85C239.56,-606.85 128.17,-606.85 128.17,-606.85 122.17,-606.85 116.17,-600.85 116.17,-594.85 116.17,-594.85 116.17,-582.85 116.17,-582.85 116.17,-576.85 122.17,-570.85 128.17,-570.85 128.17,-570.85 239.56,-570.85 239.56,-570.85 245.56,-570.85 251.56,-576.85 251.56,-582.85 251.56,-582.85 251.56,-594.85 251.56,-594.85 251.56,-600.85 245.56,-606.85 239.56,-606.85"/>
<text xml:space="preserve" text-anchor="middle" x="183.87" y="-584.65" font-family="Times,serif" font-size="14.00">PARSE ETHERNET</text>
</g>
<!-- CONVERT_HEX&#45;&gt;PARSE_ETHERNET -->
<g id="edge8" class="edge">
<title>CONVERT_HEX-&gt;PARSE_ETHERNET</title>
<path fill="none" stroke="black" d="M167.02,-659.5C169.87,-647.69 173.74,-631.72 177.04,-618.06"/>
<polygon fill="black" stroke="black" points="180.35,-619.27 179.3,-608.73 173.55,-617.63 180.35,-619.27"/>
<text xml:space="preserve" text-anchor="middle" x="224.99" y="-629.05" font-family="Times,serif" font-size="14.00">packet_callback()</text>
</g>
<!-- ROUTE_PROTOCOL -->
<g id="node8" class="node">
<title>ROUTE_PROTOCOL</title>
<path fill="none" stroke="black" d="M307.98,-518.05C307.98,-518.05 169.76,-518.05 169.76,-518.05 163.76,-518.05 157.76,-512.05 157.76,-506.05 157.76,-506.05 157.76,-494.05 157.76,-494.05 157.76,-488.05 163.76,-482.05 169.76,-482.05 169.76,-482.05 307.98,-482.05 307.98,-482.05 313.98,-482.05 319.98,-488.05 319.98,-494.05 319.98,-494.05 319.98,-506.05 319.98,-506.05 319.98,-512.05 313.98,-518.05 307.98,-518.05"/>
<text xml:space="preserve" text-anchor="middle" x="238.87" y="-495.85" font-family="Times,serif" font-size="14.00">ROUTE TO PROTOCOL</text>
</g>
<!-- PARSE_ETHERNET&#45;&gt;ROUTE_PROTOCOL -->
<g id="edge9" class="edge">
<title>PARSE_ETHERNET-&gt;ROUTE_PROTOCOL</title>
<path fill="none" stroke="black" d="M191.71,-570.56C196.64,-560.25 203.43,-547.07 210.62,-536.05 212.52,-533.13 214.61,-530.17 216.78,-527.27"/>
<polygon fill="black" stroke="black" points="219.44,-529.55 222.84,-519.52 213.92,-525.24 219.44,-529.55"/>
<text xml:space="preserve" text-anchor="middle" x="278.24" y="-540.25" font-family="Times,serif" font-size="14.00">parse_ethernet_header()</text>
</g>
<!-- PARSE_LAYER -->
<g id="node9" class="node">
<title>PARSE_LAYER</title>
<path fill="none" stroke="black" d="M270.43,-429.25C270.43,-429.25 107.3,-429.25 107.3,-429.25 101.3,-429.25 95.3,-423.25 95.3,-417.25 95.3,-417.25 95.3,-405.25 95.3,-405.25 95.3,-399.25 101.3,-393.25 107.3,-393.25 107.3,-393.25 270.43,-393.25 270.43,-393.25 276.43,-393.25 282.43,-399.25 282.43,-405.25 282.43,-405.25 282.43,-417.25 282.43,-417.25 282.43,-423.25 276.43,-429.25 270.43,-429.25"/>
<text xml:space="preserve" text-anchor="middle" x="188.87" y="-407.05" font-family="Times,serif" font-size="14.00">PARSE PROTOCOL LAYER</text>
</g>
<!-- ROUTE_PROTOCOL&#45;&gt;PARSE_LAYER -->
<g id="edge10" class="edge">
<title>ROUTE_PROTOCOL-&gt;PARSE_LAYER</title>
<path fill="none" stroke="black" d="M201.79,-481.65C195.32,-476.89 189.46,-471.05 185.69,-464.05 181.9,-457.01 181.11,-448.64 181.71,-440.69"/>
<polygon fill="black" stroke="black" points="185.13,-441.47 183.16,-431.06 178.21,-440.43 185.13,-441.47"/>
<text xml:space="preserve" text-anchor="middle" x="265.78" y="-451.45" font-family="Times,serif" font-size="14.00">route by EtherType/Protocol</text>
</g>
<!-- INCREMENT -->
<g id="node10" class="node">
<title>INCREMENT</title>
<path fill="none" stroke="black" d="M253.5,-340.45C253.5,-340.45 110.23,-340.45 110.23,-340.45 104.23,-340.45 98.23,-334.45 98.23,-328.45 98.23,-328.45 98.23,-316.45 98.23,-316.45 98.23,-310.45 104.23,-304.45 110.23,-304.45 110.23,-304.45 253.5,-304.45 253.5,-304.45 259.5,-304.45 265.5,-310.45 265.5,-316.45 265.5,-316.45 265.5,-328.45 265.5,-328.45 265.5,-334.45 259.5,-340.45 253.5,-340.45"/>
<text xml:space="preserve" text-anchor="middle" x="181.87" y="-318.25" font-family="Times,serif" font-size="14.00">INCREMENT COUNTER</text>
</g>
<!-- PARSE_LAYER&#45;&gt;INCREMENT -->
<g id="edge11" class="edge">
<title>PARSE_LAYER-&gt;INCREMENT</title>
<path fill="none" stroke="black" d="M187.48,-393.1C186.54,-381.41 185.27,-365.64 184.18,-352.07"/>
<polygon fill="black" stroke="black" points="187.69,-352.05 183.39,-342.37 180.71,-352.62 187.69,-352.05"/>
<text xml:space="preserve" text-anchor="middle" x="223.52" y="-362.65" font-family="Times,serif" font-size="14.00">display fields</text>
</g>
<!-- CHECK_LIMIT -->
<g id="node11" class="node">
<title>CHECK_LIMIT</title>
<path fill="none" stroke="black" d="M156.78,-251.65C156.78,-251.65 74.96,-251.65 74.96,-251.65 68.96,-251.65 62.96,-245.65 62.96,-239.65 62.96,-239.65 62.96,-227.65 62.96,-227.65 62.96,-221.65 68.96,-215.65 74.96,-215.65 74.96,-215.65 156.78,-215.65 156.78,-215.65 162.78,-215.65 168.78,-221.65 168.78,-227.65 168.78,-227.65 168.78,-239.65 168.78,-239.65 168.78,-245.65 162.78,-251.65 156.78,-251.65"/>
<text xml:space="preserve" text-anchor="middle" x="115.87" y="-229.45" font-family="Times,serif" font-size="14.00">CHECK LIMIT</text>
</g>
<!-- INCREMENT&#45;&gt;CHECK_LIMIT -->
<g id="edge12" class="edge">
<title>INCREMENT-&gt;CHECK_LIMIT</title>
<path fill="none" stroke="black" d="M168.83,-304.3C159.4,-291.9 146.48,-274.91 135.77,-260.82"/>
<polygon fill="black" stroke="black" points="138.86,-259.1 130.02,-253.26 133.29,-263.34 138.86,-259.1"/>
<text xml:space="preserve" text-anchor="middle" x="183.66" y="-273.85" font-family="Times,serif" font-size="14.00">counter++</text>
</g>
<!-- CHECK_LIMIT&#45;&gt;CAPTURE_PACKET -->
<g id="edge13" class="edge">
<title>CHECK_LIMIT-&gt;CAPTURE_PACKET</title>
<path fill="none" stroke="black" d="M99,-251.99C84.83,-268.46 66.87,-294.63 66.87,-321.45 66.87,-678.65 66.87,-678.65 66.87,-678.65 66.87,-698.06 67.37,-719.9 67.88,-736.81"/>
<polygon fill="black" stroke="black" points="64.37,-736.76 68.19,-746.65 71.37,-736.54 64.37,-736.76"/>
<text xml:space="preserve" text-anchor="middle" x="103.09" y="-495.85" font-family="Times,serif" font-size="14.00">count &lt; limit</text>
</g>
<!-- CHECK_LIMIT&#45;&gt;CLEANUP -->
<g id="edge14" class="edge">
<title>CHECK_LIMIT-&gt;CLEANUP</title>
<path fill="none" stroke="black" d="M115.87,-215.5C115.87,-203.81 115.87,-188.04 115.87,-174.47"/>
<polygon fill="black" stroke="black" points="119.37,-174.77 115.87,-164.77 112.37,-174.77 119.37,-174.77"/>
<text xml:space="preserve" text-anchor="middle" x="156.04" y="-185.05" font-family="Times,serif" font-size="14.00">count &gt;= limit</text>
</g>
<!-- EXIT -->
<g id="node13" class="node">
<title>EXIT</title>
<ellipse fill="red" stroke="black" cx="115.87" cy="-37.02" rx="33.02" ry="33.02"/>
<ellipse fill="none" stroke="black" cx="115.87" cy="-37.02" rx="37.02" ry="37.02"/>
<text xml:space="preserve" text-anchor="middle" x="115.87" y="-32.82" font-family="Times,serif" font-size="14.00">EXIT</text>
</g>
<!-- CLEANUP&#45;&gt;EXIT -->
<g id="edge17" class="edge">
<title>CLEANUP-&gt;EXIT</title>
<path fill="none" stroke="black" d="M115.87,-126.37C115.87,-115.26 115.87,-100.28 115.87,-85.81"/>
<polygon fill="black" stroke="black" points="119.37,-85.92 115.87,-75.92 112.37,-85.92 119.37,-85.92"/>
<text xml:space="preserve" text-anchor="middle" x="142.29" y="-96.25" font-family="Times,serif" font-size="14.00">cleanup()</text>
</g>
<!-- ERROR&#45;&gt;CLEANUP -->
<g id="edge16" class="edge">
<title>ERROR-&gt;CLEANUP</title>
<path fill="none" stroke="black" d="M355.77,-836.98C357.52,-819.48 359.87,-791.62 359.87,-767.45 359.87,-767.45 359.87,-767.45 359.87,-232.65 359.87,-192.16 239.08,-165.68 167.48,-153.53"/>
<polygon fill="black" stroke="black" points="168.36,-150.13 157.93,-151.95 167.22,-157.04 168.36,-150.13"/>
<text xml:space="preserve" text-anchor="middle" x="395.44" y="-495.85" font-family="Times,serif" font-size="14.00">display error</text>
</g>
</g>
</svg>